<mxfile host="65bd71144e">
    <diagram id="So_7OUq3uzR74_TrwX4D" name="ページ1">
        <mxGraphModel dx="1556" dy="785" grid="1" gridSize="10" guides="1" tooltips="1" connect="1" arrows="1" fold="1" page="1" pageScale="1" pageWidth="1169" pageHeight="827" math="0" shadow="0">
            <root>
                <mxCell id="0"/>
                <mxCell id="1" parent="0"/>
                <mxCell id="4" value="" style="shape=image;verticalLabelPosition=bottom;labelBackgroundColor=#ffffff;verticalAlign=top;aspect=fixed;imageAspect=0;image=data:image/png,iVBORw0KGgoAAAANSUhEUgAAANsAAADaCAYAAAAv3zflAAAAAXNSR0IArs4c6QAAAARnQU1BAACxjwv8YQUAAAAJcEhZcwAAFxEAABcRAcom8z8AAA/jSURBVHhe7dwLdJTlncdxurrHWCRA7vfL5EYmySQhkdwIIYRLCKBcohIkUgKEawCh4C04NiLQQjmibVWUWkCghdrqaQGFuhakQtFV1uNW12N32x4XLYUCsQoGyLPP/5137JAlFUN4monfzzn/M4nGc+Z9/f3e533fufQAAAAAAAAAAAAAAAAAAAAAAAAAAAAAAAAAAAAAAAAAAAAAAAAAAAAAAAAAgEtTSt2wZ8+eqKi+AbFRAQGxydFBMV1tonv0iIm+/vqYl3fvTtDPN8J+6kDXt2/fvtiGWdMLq0dVjps6aeL8iqKCRkdYkDshJMjtiAi5v6tNQkgfPUH3Vw4a2LRwVv29k6vH3T6irGTwqLKizCfWrAmxNwvoOrZv337Nxo1Ppjc13rO4ZuyY5wtcznec8THHkiPDjjvCQ07IJHXB8T63lMjwv2Y54o8XZmf+cVB+7oHSXNf3J44dM+W7K1dmrd60qade9b5mbyrwz6ODGDCvvm7s+KqRGypKCt4qyHJ+qoOrkiNClCM8WKVEhXkmsgtOVLj13BxhwUqXT7mS4lV2ikNlJsYezUl1HCzOdW2pKi/7pvveewv1dv6rvcmAeW63O/DuRfNHT6gavrPIldEi4U0I6WsFNyki1O9Gr3Ke565HCtgvNkoVZWf+fvzI4Y8vmF0//kePPRbNKod/ium1NSPGV43YVZjl/CQtOsIKaKIeK7RtQtxV51LP01u45MhQq3A5KY4TZQPyD82bNvXOI4cOJdqbD1x9u9atu65h5kxnVXnpwwMynWfS46KtFe1S4U0IDVLxwX1UXBcceV7y/No+b9/nLweQVL1iZycnqtK83DeHFA5YGt77OgoHM+bW1gZXj6pcqK/PjiTra59LlSxel08CLWGWv0nRK5/nGqmLjH4+8rwSw4JUTN9eKqr3DSo2KNBamX23xTvyt7LSJUeGv+mMj1k8ZlhpIqeUuOoKc3OTi7NdO7KTEs9KsdoGVAomK52cgulCqmEDi1VVeZmqLCvtMiPPZ3hpiVyTqX4xkbpovVVs38B2VzrP6XGwSouObMnrl3rk1tFVc5577rkoe5cAnU8fza8dVlo6JDMx4Q1nbLR1xPeGUx4TQj03SIpzstSCWfXq8UcfUZuf/qHatnmT2rppY5cZeT7P/Ohptf77j6rVyx9Ui+bMVjcPq1DOhFgV3jNAhd9w/UUHEc82hljFzEl2qLIb835TM+6miXp//Iu9a4DOdfTo0dA7am6bnZkY/751I8EOo4yEMy64typyZaj7vrlIvX74t+rcuXPq/HmZ811y5PmdPXNWvf/ee2qLLt+MOyZbBwrPKabnhs9F2xkeal3D6e1vLc3P3drU1JTx8svua+3dA3Se/fv3u+bW163NSU36yPemiGdVC9I/B6tpt9eowwcPqpaWz/SB33/85dgx9cbrr6mNT61XU267RWU64q3T4URru/6+wslIGQuzMv6nbvIkd9OSJSn27gE6z4s7d5YsnF2/Ic+Zety3bFI0WQXkrt3yZY3q4+ZmO8L+59Spk+qFX/5SzZ1Rp1xJCSo6sOfn2+ktnGyrKynx3JDCAW/eMWFsjf7PAuxdBHSOvbt3F+myre+fnvIX37LJ3Uf5uSg7S61Z8ZA6dfKkJ7l+quWzz9S+f3tJ1d4y3nq3iWyfZ+W2Tyf1JOvpFxf9SUVR4fpvL3fn6//sGns3AVduz65dhQtmzXiivbKV5OaotatWqhPHj3tS68eam09bN1PGVJRbLw1E65HTR2/ZpHzye1FO1h9vHTu6acuWLbx5GZ3ni8pWnOOyVrbuUDbxvx98oL7d9C2lr1H/30sDciopr9nl6n83uDD/NXlL1xOrVvW2dxVwZb5qZWttbbVOJ2dNneK5ftOrm3WH0l7dZOR0sn966unqUZXbG2bPKLd3FXBlvmplE389cULt2LZFjSwbqCJ6ff2iazfZZvldXsC/MaPfsZuGVTS++OyzYfbuAjruq1g28Yf//r361n13q3xnmoqTd5vo8RbOKp292pXkZr80f8aMiW+//fYN9i4DOuZyyyarQXciL34fPviqaqifbt0UiQz8+kVl874Wp8v4t6ohZT9tvOvObHuXAR1zOWWTu5HNfvw62z/y8x3bVVX5IJUU6bkb6d1+61GXUD44m+dM+1Nl2cCGvLw87k6i4y6nbKsfWq4++vBDdebMGXX69Cl1+pQeefTjaT59Wn38cbM6+JsDaumCefr6LF3F9L30pwRSoiP+lpee+kJVeVntKrc7bs2aB2PlkengrHLHPbxqVZx76dKYcePGhd05bVrQoV27AvWxr3u/Ta69snlvGsi7/O9ZvMi6g3dg36/Vz3b8RD37k23Woz+PrGjP/+yn6sfPbFbL7lqiBuX3t8rme7NExi5fqysp4bQu268XzJn5yNIFDWsXzp25junY3Dln1iOL58/53sxvTP7OyMGDFo+rGjHzgfvuvm3XrudyW1tbe9rR7H7aK5v3CC+nUWOGDrGubeZOr1M1425WE8eOsR79eSaN94y8Z7J69EiVl55mreZtVzbZH/JSgDM+RhW5Mlv0Keex0RXlH8oj07EZNaTs2Oihg48PLSn4QO/3/xiQ6Tw0bGDRnuGDip8aM3TwXdNqa6u2bt0abke0+2ivbL4jL/SmyodF7Q9odqfxbpv83Ha7fUcK5/1bpnNG9qf9/6FVzwVHROg5fbp+8qZhFb+aPmVy/eLFc+J1RLvPR56+qGzyu3zMJiqwpzUxfXp1q4nWI7f9L3Wt5juyH+RvZB8xnTPWHV+9X7371vulTLpwn5YX3PjWiLKS5VlpCWl2VP3f5axsDGNqvAXMSXGoQlfGH0rzsh+qvqnSacfVv32Zsn1+dNc7hGE6Y6wVzSdz8rP396ykBFWcm/XBzSOH3rtp0w/kXTz+/R0xX6Zs8u/ljp28n5BhOmOsO8A6V7458x7U5RP0ruREpU8p906puXVsXV1dLzu2/umLyiYXsPKtWnK9Jhe0+c5+qiTXpQb2z5a3MjFMh8aTH5eVJ8mV5Ety5nujSgonj/kZqR+OGFTyg5lTpiTYsfVPl3ODRL6PUe4eyUsASxY0qIfcy9TKpgfUigfuZ5gOjeRHciR5klxJviRnvvnz/uxKir9Q4Mp4ta6mpsiOrX/6R2WTc+pIfcTJT0+zvq3q5zt2WN/p8e7v/lP917vvqHff+R3DdGis/OgcSZ4kV5IvyZnkTXLnzaCsdPINaK6khPdvGz160oEDB/z3VLK9ssmjbLQs7bW3TFCvvvKKOn/hgucNhUAnklxJviRnni8CvvigLy8JZDni/3RHdXXjK3v3Ouzo+p/2yua9UyTvrHhwWaM69uc/27sG6HySL8mZ5M17x/vzg77OZW5a0rF50+q+t2fnznw7uv6nvbJ534hcmper1q3+jvXGXeBqkXxJziRvkjvJn2/Z5NvfFs6pf+qlF14otqPrf76obPKu/++uXNHtPs+GrkXyJTmTvF2qbJJPyank1Y6u/7mcsnXHT2qja5F8Sc4oG2XDVUbZKBsMoWyUDYZQNsoGQygbZYMhlI2ywRDKRtlgCGWjbDCEslE2GELZKBsMoWyUDYZQNsoGQygbZYMhlI2ywRDKRtlgCGWjbDCEslE2GELZKBsMoWyUDYZQNsoGQygbZYMhlI2ywRDKRtlgCGWjbDCEslE2GELZKBsMoWyUDYZQNsoGQygbZYMhlI2ywRDKRtlgCGWjbDCEslE2GELZKBsMoWyUDYZQNsoGQygbZYMhlI2ywRDKRtlgCGWjbDCEslE2GELZKBsMoWyUDYZQNsoGQygbZYMhlI2ywRDKRtlgCGWjbDCEslE2GELZKBsMoWyUDYZQNsoGQygbZYMhlI2ywRDKRtlgCGWjbDCEslE2GELZKBsMoWyUDYZQNsoGQygbZYMhlI2ywRDKRtlgCGWjbDCEslE2GELZKBsMoWyUDYZQNsoGQygbZYMhlI2ywRDKRtlgCGWjbDCEslE2GELZKBsMoWyUDYZQNsoGQygbZYMhlI2ywRDKRtlgCGWjbDCEslE2GELZKBsMoWyUDYZQNsoGQygbZYMhlI2ywRDKRtlgCGWjbDCEslE2GELZKBsMoWyUDYZQNsoGQygbZYMhlI2ywRDKRtlgCGWjbDCEslE2GELZKBsMoWz655LcHLV21UrKhqtK8iU5k7x127Lt3b27aOHs+vXtla0oO8s64pw6edLeLUDnk3xJziRv7ZVNcip5taPrf17cubNEb8SGPGfqcd+yJYQGqcSwYJWdnKiWL2tUHzc327sF6HySL8mZ5E1yJ/nzLZvkU3IqebWj63/279/vmltftzYnNekj37JZG2ltcLCadnuNOnzwoGppabF3DdB5Wlo+s/IlOZO8Se4uyqHOpeRTcip5taPrf5qPHg2trbl1TmZi/PtJ9gZ6R44wccG99dKeqRqXLFavHz6szp07p86fP68uXNCjH+Vnhvmy8/fsnFP//tphK1+SM8mb5M43h5JLyafkVPJqR9f/6APLtcNKS4dkJia84YyNVsmRYW1WN8+5c3FOlppd9w21bs1qtXHDk+rHz2xW2zZtVFsZpgOzbfMmtfnpH6rHH31ELZhVb+VLSiV58+ZPRvKYHhOlMhLi3pCcSl7t6Pqnwtzc5OJs147spMSzsqFtjyzWObReyhNCg5VLn1NXFA1Qo4YMViMHD1KVZaUM86WnqrxMDRtYrAqynKpfbJSdL891mm/uHBEhqn9aytlB+f13lBUWJtuR9V9za2uDq0dVLtQbfsR3ZfOO/C53h2L6Bqq4oD7WP0uNjlApUeEM07HR+ZGsScHigvt8fvfbN3dStmT9t4ML8o/Mmjpl4YoVK4LtyPqvXevWXdcwc6azqrz04QGZzjPpcdHWkabtxnt3gOwY2UEMcyUTr8f3Zoh35HfJX7pe8QZkOT+dUFX58GPr1jnfa229zo6s/6ufPLFy/MgRuwuznJ+k6SOPQxfLWsovsTMYpjOmba6svOmR/EkOJY+SSzui3Yfb7Q68e9H80ROqhu8scmW0yHIvR5i2dykZ5qqMzpnkTXIn+ZMcSh7dDQ2BdkS7F6VUwLz6urHjq0ZuqCgpeEtfx32a5YhXyfpC1REerHdEmGf0+TbDXNHYWZJcSb4kZ5I3yZ3kT3IoebSj2T1t3779mo0bn0xvarxncc3YMc8XuJzvOONjjukL2uN6qT8ho49CDHNF482S5EryJTmTvEnuJH+SQzuS3d++fftiG2ZNL6weVTlu6qSJ8yuKChodYUHuhJAgtyMi5H6GuZKxcqTzJLmSfEnOJG+SOzuCX02tra29fvWLX0RH9g2IiwwIiEuK6hvLMFcykiPJk+RK8mVHDQAAAAAAAAAAAAAAAAAAAAAAAAAAAAAAAAAAAAAAAAAAAAAAAAAAAAAAAAAu0qPH/wHuZytPzU9dPAAAAABJRU5ErkJggg==;" parent="1" vertex="1">
                    <mxGeometry x="120" y="80" width="40.18" height="40" as="geometry"/>
                </mxCell>
                <mxCell id="5" value="" style="shape=image;verticalLabelPosition=bottom;labelBackgroundColor=#ffffff;verticalAlign=top;aspect=fixed;imageAspect=0;image=data:image/png,iVBORw0KGgoAAAANSUhEUgAAANsAAADaCAYAAAAv3zflAAAAAXNSR0IArs4c6QAAAARnQU1BAACxjwv8YQUAAAAJcEhZcwAAFxEAABcRAcom8z8AAA/jSURBVHhe7dwLdJTlncdxurrHWCRA7vfL5EYmySQhkdwIIYRLCKBcohIkUgKEawCh4C04NiLQQjmibVWUWkCghdrqaQGFuhakQtFV1uNW12N32x4XLYUCsQoGyLPP/5137JAlFUN4monfzzn/M4nGc+Z9/f3e533fufQAAAAAAAAAAAAAAAAAAAAAAAAAAAAAAAAAAAAAAAAAAAAAAAAAAAAAAAAAgEtTSt2wZ8+eqKi+AbFRAQGxydFBMV1tonv0iIm+/vqYl3fvTtDPN8J+6kDXt2/fvtiGWdMLq0dVjps6aeL8iqKCRkdYkDshJMjtiAi5v6tNQkgfPUH3Vw4a2LRwVv29k6vH3T6irGTwqLKizCfWrAmxNwvoOrZv337Nxo1Ppjc13rO4ZuyY5wtcznec8THHkiPDjjvCQ07IJHXB8T63lMjwv2Y54o8XZmf+cVB+7oHSXNf3J44dM+W7K1dmrd60qade9b5mbyrwz6ODGDCvvm7s+KqRGypKCt4qyHJ+qoOrkiNClCM8WKVEhXkmsgtOVLj13BxhwUqXT7mS4lV2ikNlJsYezUl1HCzOdW2pKi/7pvveewv1dv6rvcmAeW63O/DuRfNHT6gavrPIldEi4U0I6WsFNyki1O9Gr3Ke565HCtgvNkoVZWf+fvzI4Y8vmF0//kePPRbNKod/ium1NSPGV43YVZjl/CQtOsIKaKIeK7RtQtxV51LP01u45MhQq3A5KY4TZQPyD82bNvXOI4cOJdqbD1x9u9atu65h5kxnVXnpwwMynWfS46KtFe1S4U0IDVLxwX1UXBcceV7y/No+b9/nLweQVL1iZycnqtK83DeHFA5YGt77OgoHM+bW1gZXj6pcqK/PjiTra59LlSxel08CLWGWv0nRK5/nGqmLjH4+8rwSw4JUTN9eKqr3DSo2KNBamX23xTvyt7LSJUeGv+mMj1k8ZlhpIqeUuOoKc3OTi7NdO7KTEs9KsdoGVAomK52cgulCqmEDi1VVeZmqLCvtMiPPZ3hpiVyTqX4xkbpovVVs38B2VzrP6XGwSouObMnrl3rk1tFVc5577rkoe5cAnU8fza8dVlo6JDMx4Q1nbLR1xPeGUx4TQj03SIpzstSCWfXq8UcfUZuf/qHatnmT2rppY5cZeT7P/Ohptf77j6rVyx9Ui+bMVjcPq1DOhFgV3jNAhd9w/UUHEc82hljFzEl2qLIb835TM+6miXp//Iu9a4DOdfTo0dA7am6bnZkY/751I8EOo4yEMy64typyZaj7vrlIvX74t+rcuXPq/HmZ811y5PmdPXNWvf/ee2qLLt+MOyZbBwrPKabnhs9F2xkeal3D6e1vLc3P3drU1JTx8svua+3dA3Se/fv3u+bW163NSU36yPemiGdVC9I/B6tpt9eowwcPqpaWz/SB33/85dgx9cbrr6mNT61XU267RWU64q3T4URru/6+wslIGQuzMv6nbvIkd9OSJSn27gE6z4s7d5YsnF2/Ic+Zety3bFI0WQXkrt3yZY3q4+ZmO8L+59Spk+qFX/5SzZ1Rp1xJCSo6sOfn2+ktnGyrKynx3JDCAW/eMWFsjf7PAuxdBHSOvbt3F+myre+fnvIX37LJ3Uf5uSg7S61Z8ZA6dfKkJ7l+quWzz9S+f3tJ1d4y3nq3iWyfZ+W2Tyf1JOvpFxf9SUVR4fpvL3fn6//sGns3AVduz65dhQtmzXiivbKV5OaotatWqhPHj3tS68eam09bN1PGVJRbLw1E65HTR2/ZpHzye1FO1h9vHTu6acuWLbx5GZ3ni8pWnOOyVrbuUDbxvx98oL7d9C2lr1H/30sDciopr9nl6n83uDD/NXlL1xOrVvW2dxVwZb5qZWttbbVOJ2dNneK5ftOrm3WH0l7dZOR0sn966unqUZXbG2bPKLd3FXBlvmplE389cULt2LZFjSwbqCJ6ff2iazfZZvldXsC/MaPfsZuGVTS++OyzYfbuAjruq1g28Yf//r361n13q3xnmoqTd5vo8RbOKp292pXkZr80f8aMiW+//fYN9i4DOuZyyyarQXciL34fPviqaqifbt0UiQz8+kVl874Wp8v4t6ohZT9tvOvObHuXAR1zOWWTu5HNfvw62z/y8x3bVVX5IJUU6bkb6d1+61GXUD44m+dM+1Nl2cCGvLw87k6i4y6nbKsfWq4++vBDdebMGXX69Cl1+pQeefTjaT59Wn38cbM6+JsDaumCefr6LF3F9L30pwRSoiP+lpee+kJVeVntKrc7bs2aB2PlkengrHLHPbxqVZx76dKYcePGhd05bVrQoV27AvWxr3u/Ta69snlvGsi7/O9ZvMi6g3dg36/Vz3b8RD37k23Woz+PrGjP/+yn6sfPbFbL7lqiBuX3t8rme7NExi5fqysp4bQu268XzJn5yNIFDWsXzp25junY3Dln1iOL58/53sxvTP7OyMGDFo+rGjHzgfvuvm3XrudyW1tbe9rR7H7aK5v3CC+nUWOGDrGubeZOr1M1425WE8eOsR79eSaN94y8Z7J69EiVl55mreZtVzbZH/JSgDM+RhW5Mlv0Keex0RXlH8oj07EZNaTs2Oihg48PLSn4QO/3/xiQ6Tw0bGDRnuGDip8aM3TwXdNqa6u2bt0abke0+2ivbL4jL/SmyodF7Q9odqfxbpv83Ha7fUcK5/1bpnNG9qf9/6FVzwVHROg5fbp+8qZhFb+aPmVy/eLFc+J1RLvPR56+qGzyu3zMJiqwpzUxfXp1q4nWI7f9L3Wt5juyH+RvZB8xnTPWHV+9X7371vulTLpwn5YX3PjWiLKS5VlpCWl2VP3f5axsDGNqvAXMSXGoQlfGH0rzsh+qvqnSacfVv32Zsn1+dNc7hGE6Y6wVzSdz8rP396ykBFWcm/XBzSOH3rtp0w/kXTz+/R0xX6Zs8u/ljp28n5BhOmOsO8A6V7458x7U5RP0ruREpU8p906puXVsXV1dLzu2/umLyiYXsPKtWnK9Jhe0+c5+qiTXpQb2z5a3MjFMh8aTH5eVJ8mV5Ety5nujSgonj/kZqR+OGFTyg5lTpiTYsfVPl3ODRL6PUe4eyUsASxY0qIfcy9TKpgfUigfuZ5gOjeRHciR5klxJviRnvvnz/uxKir9Q4Mp4ta6mpsiOrX/6R2WTc+pIfcTJT0+zvq3q5zt2WN/p8e7v/lP917vvqHff+R3DdGis/OgcSZ4kV5IvyZnkTXLnzaCsdPINaK6khPdvGz160oEDB/z3VLK9ssmjbLQs7bW3TFCvvvKKOn/hgucNhUAnklxJviRnni8CvvigLy8JZDni/3RHdXXjK3v3Ouzo+p/2yua9UyTvrHhwWaM69uc/27sG6HySL8mZ5M17x/vzg77OZW5a0rF50+q+t2fnznw7uv6nvbJ534hcmper1q3+jvXGXeBqkXxJziRvkjvJn2/Z5NvfFs6pf+qlF14otqPrf76obPKu/++uXNHtPs+GrkXyJTmTvF2qbJJPyank1Y6u/7mcsnXHT2qja5F8Sc4oG2XDVUbZKBsMoWyUDYZQNsoGQygbZYMhlI2ywRDKRtlgCGWjbDCEslE2GELZKBsMoWyUDYZQNsoGQygbZYMhlI2ywRDKRtlgCGWjbDCEslE2GELZKBsMoWyUDYZQNsoGQygbZYMhlI2ywRDKRtlgCGWjbDCEslE2GELZKBsMoWyUDYZQNsoGQygbZYMhlI2ywRDKRtlgCGWjbDCEslE2GELZKBsMoWyUDYZQNsoGQygbZYMhlI2ywRDKRtlgCGWjbDCEslE2GELZKBsMoWyUDYZQNsoGQygbZYMhlI2ywRDKRtlgCGWjbDCEslE2GELZKBsMoWyUDYZQNsoGQygbZYMhlI2ywRDKRtlgCGWjbDCEslE2GELZKBsMoWyUDYZQNsoGQygbZYMhlI2ywRDKRtlgCGWjbDCEslE2GELZKBsMoWyUDYZQNsoGQygbZYMhlI2ywRDKRtlgCGWjbDCEslE2GELZKBsMoWyUDYZQNsoGQygbZYMhlI2ywRDKRtlgCGWjbDCEslE2GELZKBsMoWyUDYZQNsoGQygbZYMhlI2ywRDKRtlgCGWjbDCEslE2GELZKBsMoWyUDYZQNsoGQygbZYMhlI2ywRDKRtlgCGWjbDCEslE2GELZKBsMoWz655LcHLV21UrKhqtK8iU5k7x127Lt3b27aOHs+vXtla0oO8s64pw6edLeLUDnk3xJziRv7ZVNcip5taPrf17cubNEb8SGPGfqcd+yJYQGqcSwYJWdnKiWL2tUHzc327sF6HySL8mZ5E1yJ/nzLZvkU3IqebWj63/279/vmltftzYnNekj37JZG2ltcLCadnuNOnzwoGppabF3DdB5Wlo+s/IlOZO8Se4uyqHOpeRTcip5taPrf5qPHg2trbl1TmZi/PtJ9gZ6R44wccG99dKeqRqXLFavHz6szp07p86fP68uXNCjH+Vnhvmy8/fsnFP//tphK1+SM8mb5M43h5JLyafkVPJqR9f/6APLtcNKS4dkJia84YyNVsmRYW1WN8+5c3FOlppd9w21bs1qtXHDk+rHz2xW2zZtVFsZpgOzbfMmtfnpH6rHH31ELZhVb+VLSiV58+ZPRvKYHhOlMhLi3pCcSl7t6Pqnwtzc5OJs147spMSzsqFtjyzWObReyhNCg5VLn1NXFA1Qo4YMViMHD1KVZaUM86WnqrxMDRtYrAqynKpfbJSdL891mm/uHBEhqn9aytlB+f13lBUWJtuR9V9za2uDq0dVLtQbfsR3ZfOO/C53h2L6Bqq4oD7WP0uNjlApUeEM07HR+ZGsScHigvt8fvfbN3dStmT9t4ML8o/Mmjpl4YoVK4LtyPqvXevWXdcwc6azqrz04QGZzjPpcdHWkabtxnt3gOwY2UEMcyUTr8f3Zoh35HfJX7pe8QZkOT+dUFX58GPr1jnfa229zo6s/6ufPLFy/MgRuwuznJ+k6SOPQxfLWsovsTMYpjOmba6svOmR/EkOJY+SSzui3Yfb7Q68e9H80ROqhu8scmW0yHIvR5i2dykZ5qqMzpnkTXIn+ZMcSh7dDQ2BdkS7F6VUwLz6urHjq0ZuqCgpeEtfx32a5YhXyfpC1REerHdEmGf0+TbDXNHYWZJcSb4kZ5I3yZ3kT3IoebSj2T1t3779mo0bn0xvarxncc3YMc8XuJzvOONjjukL2uN6qT8ho49CDHNF482S5EryJTmTvEnuJH+SQzuS3d++fftiG2ZNL6weVTlu6qSJ8yuKChodYUHuhJAgtyMi5H6GuZKxcqTzJLmSfEnOJG+SOzuCX02tra29fvWLX0RH9g2IiwwIiEuK6hvLMFcykiPJk+RK8mVHDQAAAAAAAAAAAAAAAAAAAAAAAAAAAAAAAAAAAAAAAAAAAAAAAAAAAAAAAAAu0qPH/wHuZytPzU9dPAAAAABJRU5ErkJggg==;" parent="1" vertex="1">
                    <mxGeometry x="160.18" y="120" width="40.18" height="40" as="geometry"/>
                </mxCell>
                <mxCell id="6" value="AaaSubSystem" style="text;html=1;strokeColor=none;fillColor=none;align=left;verticalAlign=middle;whiteSpace=wrap;rounded=0;fontFamily=Noto Sans JP;fontSource=https%3A%2F%2Ffonts.googleapis.com%2Fcss%3Ffamily%3DNoto%2BSans%2BJP;fontSize=18;fontColor=#FFFFFF;" parent="1" vertex="1">
                    <mxGeometry x="170" y="80" width="150" height="40" as="geometry"/>
                </mxCell>
                <mxCell id="7" value="backend" style="text;html=1;strokeColor=none;fillColor=none;align=left;verticalAlign=middle;whiteSpace=wrap;rounded=0;fontFamily=Noto Sans JP;fontSource=https%3A%2F%2Ffonts.googleapis.com%2Fcss%3Ffamily%3DNoto%2BSans%2BJP;fontSize=18;fontColor=#FFFFFF;" parent="1" vertex="1">
                    <mxGeometry x="210.18" y="120" width="109.82" height="40" as="geometry"/>
                </mxCell>
                <mxCell id="10" style="edgeStyle=orthogonalEdgeStyle;html=1;entryX=0;entryY=0.5;entryDx=0;entryDy=0;fontFamily=Noto Sans JP;fontSource=https%3A%2F%2Ffonts.googleapis.com%2Fcss%3Ffamily%3DNoto%2BSans%2BJP;fontSize=18;endArrow=none;endFill=0;rounded=0;exitX=0.5;exitY=1;exitDx=0;exitDy=0;strokeColor=#FFFFFF;" parent="1" source="4" target="5" edge="1">
                    <mxGeometry relative="1" as="geometry">
                        <mxPoint x="110" y="90" as="sourcePoint"/>
                        <mxPoint x="130" y="110" as="targetPoint"/>
                    </mxGeometry>
                </mxCell>
                <mxCell id="14" value="" style="shape=image;verticalLabelPosition=bottom;labelBackgroundColor=#ffffff;verticalAlign=top;aspect=fixed;imageAspect=0;image=data:image/png,iVBORw0KGgoAAAANSUhEUgAAANsAAADaCAYAAAAv3zflAAAAAXNSR0IArs4c6QAAAARnQU1BAACxjwv8YQUAAAAJcEhZcwAAFxEAABcRAcom8z8AAA/jSURBVHhe7dwLdJTlncdxurrHWCRA7vfL5EYmySQhkdwIIYRLCKBcohIkUgKEawCh4C04NiLQQjmibVWUWkCghdrqaQGFuhakQtFV1uNW12N32x4XLYUCsQoGyLPP/5137JAlFUN4monfzzn/M4nGc+Z9/f3e533fufQAAAAAAAAAAAAAAAAAAAAAAAAAAAAAAAAAAAAAAAAAAAAAAAAAAAAAAAAAgEtTSt2wZ8+eqKi+AbFRAQGxydFBMV1tonv0iIm+/vqYl3fvTtDPN8J+6kDXt2/fvtiGWdMLq0dVjps6aeL8iqKCRkdYkDshJMjtiAi5v6tNQkgfPUH3Vw4a2LRwVv29k6vH3T6irGTwqLKizCfWrAmxNwvoOrZv337Nxo1Ppjc13rO4ZuyY5wtcznec8THHkiPDjjvCQ07IJHXB8T63lMjwv2Y54o8XZmf+cVB+7oHSXNf3J44dM+W7K1dmrd60qade9b5mbyrwz6ODGDCvvm7s+KqRGypKCt4qyHJ+qoOrkiNClCM8WKVEhXkmsgtOVLj13BxhwUqXT7mS4lV2ikNlJsYezUl1HCzOdW2pKi/7pvveewv1dv6rvcmAeW63O/DuRfNHT6gavrPIldEi4U0I6WsFNyki1O9Gr3Ke565HCtgvNkoVZWf+fvzI4Y8vmF0//kePPRbNKod/ium1NSPGV43YVZjl/CQtOsIKaKIeK7RtQtxV51LP01u45MhQq3A5KY4TZQPyD82bNvXOI4cOJdqbD1x9u9atu65h5kxnVXnpwwMynWfS46KtFe1S4U0IDVLxwX1UXBcceV7y/No+b9/nLweQVL1iZycnqtK83DeHFA5YGt77OgoHM+bW1gZXj6pcqK/PjiTra59LlSxel08CLWGWv0nRK5/nGqmLjH4+8rwSw4JUTN9eKqr3DSo2KNBamX23xTvyt7LSJUeGv+mMj1k8ZlhpIqeUuOoKc3OTi7NdO7KTEs9KsdoGVAomK52cgulCqmEDi1VVeZmqLCvtMiPPZ3hpiVyTqX4xkbpovVVs38B2VzrP6XGwSouObMnrl3rk1tFVc5577rkoe5cAnU8fza8dVlo6JDMx4Q1nbLR1xPeGUx4TQj03SIpzstSCWfXq8UcfUZuf/qHatnmT2rppY5cZeT7P/Ohptf77j6rVyx9Ui+bMVjcPq1DOhFgV3jNAhd9w/UUHEc82hljFzEl2qLIb835TM+6miXp//Iu9a4DOdfTo0dA7am6bnZkY/751I8EOo4yEMy64typyZaj7vrlIvX74t+rcuXPq/HmZ811y5PmdPXNWvf/ee2qLLt+MOyZbBwrPKabnhs9F2xkeal3D6e1vLc3P3drU1JTx8svua+3dA3Se/fv3u+bW163NSU36yPemiGdVC9I/B6tpt9eowwcPqpaWz/SB33/85dgx9cbrr6mNT61XU267RWU64q3T4URru/6+wslIGQuzMv6nbvIkd9OSJSn27gE6z4s7d5YsnF2/Ic+Zety3bFI0WQXkrt3yZY3q4+ZmO8L+59Spk+qFX/5SzZ1Rp1xJCSo6sOfn2+ktnGyrKynx3JDCAW/eMWFsjf7PAuxdBHSOvbt3F+myre+fnvIX37LJ3Uf5uSg7S61Z8ZA6dfKkJ7l+quWzz9S+f3tJ1d4y3nq3iWyfZ+W2Tyf1JOvpFxf9SUVR4fpvL3fn6//sGns3AVduz65dhQtmzXiivbKV5OaotatWqhPHj3tS68eam09bN1PGVJRbLw1E65HTR2/ZpHzye1FO1h9vHTu6acuWLbx5GZ3ni8pWnOOyVrbuUDbxvx98oL7d9C2lr1H/30sDciopr9nl6n83uDD/NXlL1xOrVvW2dxVwZb5qZWttbbVOJ2dNneK5ftOrm3WH0l7dZOR0sn966unqUZXbG2bPKLd3FXBlvmplE389cULt2LZFjSwbqCJ6ff2iazfZZvldXsC/MaPfsZuGVTS++OyzYfbuAjruq1g28Yf//r361n13q3xnmoqTd5vo8RbOKp292pXkZr80f8aMiW+//fYN9i4DOuZyyyarQXciL34fPviqaqifbt0UiQz8+kVl874Wp8v4t6ohZT9tvOvObHuXAR1zOWWTu5HNfvw62z/y8x3bVVX5IJUU6bkb6d1+61GXUD44m+dM+1Nl2cCGvLw87k6i4y6nbKsfWq4++vBDdebMGXX69Cl1+pQeefTjaT59Wn38cbM6+JsDaumCefr6LF3F9L30pwRSoiP+lpee+kJVeVntKrc7bs2aB2PlkengrHLHPbxqVZx76dKYcePGhd05bVrQoV27AvWxr3u/Ta69snlvGsi7/O9ZvMi6g3dg36/Vz3b8RD37k23Woz+PrGjP/+yn6sfPbFbL7lqiBuX3t8rme7NExi5fqysp4bQu268XzJn5yNIFDWsXzp25junY3Dln1iOL58/53sxvTP7OyMGDFo+rGjHzgfvuvm3XrudyW1tbe9rR7H7aK5v3CC+nUWOGDrGubeZOr1M1425WE8eOsR79eSaN94y8Z7J69EiVl55mreZtVzbZH/JSgDM+RhW5Mlv0Keex0RXlH8oj07EZNaTs2Oihg48PLSn4QO/3/xiQ6Tw0bGDRnuGDip8aM3TwXdNqa6u2bt0abke0+2ivbL4jL/SmyodF7Q9odqfxbpv83Ha7fUcK5/1bpnNG9qf9/6FVzwVHROg5fbp+8qZhFb+aPmVy/eLFc+J1RLvPR56+qGzyu3zMJiqwpzUxfXp1q4nWI7f9L3Wt5juyH+RvZB8xnTPWHV+9X7371vulTLpwn5YX3PjWiLKS5VlpCWl2VP3f5axsDGNqvAXMSXGoQlfGH0rzsh+qvqnSacfVv32Zsn1+dNc7hGE6Y6wVzSdz8rP396ykBFWcm/XBzSOH3rtp0w/kXTz+/R0xX6Zs8u/ljp28n5BhOmOsO8A6V7458x7U5RP0ruREpU8p906puXVsXV1dLzu2/umLyiYXsPKtWnK9Jhe0+c5+qiTXpQb2z5a3MjFMh8aTH5eVJ8mV5Ety5nujSgonj/kZqR+OGFTyg5lTpiTYsfVPl3ODRL6PUe4eyUsASxY0qIfcy9TKpgfUigfuZ5gOjeRHciR5klxJviRnvvnz/uxKir9Q4Mp4ta6mpsiOrX/6R2WTc+pIfcTJT0+zvq3q5zt2WN/p8e7v/lP917vvqHff+R3DdGis/OgcSZ4kV5IvyZnkTXLnzaCsdPINaK6khPdvGz160oEDB/z3VLK9ssmjbLQs7bW3TFCvvvKKOn/hgucNhUAnklxJviRnni8CvvigLy8JZDni/3RHdXXjK3v3Ouzo+p/2yua9UyTvrHhwWaM69uc/27sG6HySL8mZ5M17x/vzg77OZW5a0rF50+q+t2fnznw7uv6nvbJ534hcmper1q3+jvXGXeBqkXxJziRvkjvJn2/Z5NvfFs6pf+qlF14otqPrf76obPKu/++uXNHtPs+GrkXyJTmTvF2qbJJPyank1Y6u/7mcsnXHT2qja5F8Sc4oG2XDVUbZKBsMoWyUDYZQNsoGQygbZYMhlI2ywRDKRtlgCGWjbDCEslE2GELZKBsMoWyUDYZQNsoGQygbZYMhlI2ywRDKRtlgCGWjbDCEslE2GELZKBsMoWyUDYZQNsoGQygbZYMhlI2ywRDKRtlgCGWjbDCEslE2GELZKBsMoWyUDYZQNsoGQygbZYMhlI2ywRDKRtlgCGWjbDCEslE2GELZKBsMoWyUDYZQNsoGQygbZYMhlI2ywRDKRtlgCGWjbDCEslE2GELZKBsMoWyUDYZQNsoGQygbZYMhlI2ywRDKRtlgCGWjbDCEslE2GELZKBsMoWyUDYZQNsoGQygbZYMhlI2ywRDKRtlgCGWjbDCEslE2GELZKBsMoWyUDYZQNsoGQygbZYMhlI2ywRDKRtlgCGWjbDCEslE2GELZKBsMoWyUDYZQNsoGQygbZYMhlI2ywRDKRtlgCGWjbDCEslE2GELZKBsMoWyUDYZQNsoGQygbZYMhlI2ywRDKRtlgCGWjbDCEslE2GELZKBsMoWyUDYZQNsoGQygbZYMhlI2ywRDKRtlgCGWjbDCEslE2GELZKBsMoWyUDYZQNsoGQygbZYMhlI2ywRDKRtlgCGWjbDCEslE2GELZKBsMoWz655LcHLV21UrKhqtK8iU5k7x127Lt3b27aOHs+vXtla0oO8s64pw6edLeLUDnk3xJziRv7ZVNcip5taPrf17cubNEb8SGPGfqcd+yJYQGqcSwYJWdnKiWL2tUHzc327sF6HySL8mZ5E1yJ/nzLZvkU3IqebWj63/279/vmltftzYnNekj37JZG2ltcLCadnuNOnzwoGppabF3DdB5Wlo+s/IlOZO8Se4uyqHOpeRTcip5taPrf5qPHg2trbl1TmZi/PtJ9gZ6R44wccG99dKeqRqXLFavHz6szp07p86fP68uXNCjH+Vnhvmy8/fsnFP//tphK1+SM8mb5M43h5JLyafkVPJqR9f/6APLtcNKS4dkJia84YyNVsmRYW1WN8+5c3FOlppd9w21bs1qtXHDk+rHz2xW2zZtVFsZpgOzbfMmtfnpH6rHH31ELZhVb+VLSiV58+ZPRvKYHhOlMhLi3pCcSl7t6Pqnwtzc5OJs147spMSzsqFtjyzWObReyhNCg5VLn1NXFA1Qo4YMViMHD1KVZaUM86WnqrxMDRtYrAqynKpfbJSdL891mm/uHBEhqn9aytlB+f13lBUWJtuR9V9za2uDq0dVLtQbfsR3ZfOO/C53h2L6Bqq4oD7WP0uNjlApUeEM07HR+ZGsScHigvt8fvfbN3dStmT9t4ML8o/Mmjpl4YoVK4LtyPqvXevWXdcwc6azqrz04QGZzjPpcdHWkabtxnt3gOwY2UEMcyUTr8f3Zoh35HfJX7pe8QZkOT+dUFX58GPr1jnfa229zo6s/6ufPLFy/MgRuwuznJ+k6SOPQxfLWsovsTMYpjOmba6svOmR/EkOJY+SSzui3Yfb7Q68e9H80ROqhu8scmW0yHIvR5i2dykZ5qqMzpnkTXIn+ZMcSh7dDQ2BdkS7F6VUwLz6urHjq0ZuqCgpeEtfx32a5YhXyfpC1REerHdEmGf0+TbDXNHYWZJcSb4kZ5I3yZ3kT3IoebSj2T1t3779mo0bn0xvarxncc3YMc8XuJzvOONjjukL2uN6qT8ho49CDHNF482S5EryJTmTvEnuJH+SQzuS3d++fftiG2ZNL6weVTlu6qSJ8yuKChodYUHuhJAgtyMi5H6GuZKxcqTzJLmSfEnOJG+SOzuCX02tra29fvWLX0RH9g2IiwwIiEuK6hvLMFcykiPJk+RK8mVHDQAAAAAAAAAAAAAAAAAAAAAAAAAAAAAAAAAAAAAAAAAAAAAAAAAAAAAAAAAu0qPH/wHuZytPzU9dPAAAAABJRU5ErkJggg==;" parent="1" vertex="1">
                    <mxGeometry x="200.36" y="160" width="40.18" height="40" as="geometry"/>
                </mxCell>
                <mxCell id="15" value="tests (テストコードを配置)" style="text;html=1;strokeColor=none;fillColor=none;align=left;verticalAlign=middle;whiteSpace=wrap;rounded=0;fontFamily=Noto Sans JP;fontSource=https%3A%2F%2Ffonts.googleapis.com%2Fcss%3Ffamily%3DNoto%2BSans%2BJP;fontSize=18;fontColor=#FFFFFF;" parent="1" vertex="1">
                    <mxGeometry x="250" y="200" width="290" height="40" as="geometry"/>
                </mxCell>
                <mxCell id="16" style="edgeStyle=orthogonalEdgeStyle;html=1;entryX=0;entryY=0.5;entryDx=0;entryDy=0;fontFamily=Noto Sans JP;fontSource=https%3A%2F%2Ffonts.googleapis.com%2Fcss%3Ffamily%3DNoto%2BSans%2BJP;fontSize=18;endArrow=none;endFill=0;rounded=0;strokeColor=#FFFFFF;exitX=0.5;exitY=1;exitDx=0;exitDy=0;" parent="1" source="5" target="14" edge="1">
                    <mxGeometry relative="1" as="geometry">
                        <mxPoint x="150" y="180" as="sourcePoint"/>
                        <mxPoint x="170.18000000000006" y="150" as="targetPoint"/>
                    </mxGeometry>
                </mxCell>
                <mxCell id="17" value="" style="shape=image;verticalLabelPosition=bottom;labelBackgroundColor=#ffffff;verticalAlign=top;aspect=fixed;imageAspect=0;image=data:image/png,iVBORw0KGgoAAAANSUhEUgAAANsAAADaCAYAAAAv3zflAAAAAXNSR0IArs4c6QAAAARnQU1BAACxjwv8YQUAAAAJcEhZcwAAFxEAABcRAcom8z8AAA/jSURBVHhe7dwLdJTlncdxurrHWCRA7vfL5EYmySQhkdwIIYRLCKBcohIkUgKEawCh4C04NiLQQjmibVWUWkCghdrqaQGFuhakQtFV1uNW12N32x4XLYUCsQoGyLPP/5137JAlFUN4monfzzn/M4nGc+Z9/f3e533fufQAAAAAAAAAAAAAAAAAAAAAAAAAAAAAAAAAAAAAAAAAAAAAAAAAAAAAAAAAgEtTSt2wZ8+eqKi+AbFRAQGxydFBMV1tonv0iIm+/vqYl3fvTtDPN8J+6kDXt2/fvtiGWdMLq0dVjps6aeL8iqKCRkdYkDshJMjtiAi5v6tNQkgfPUH3Vw4a2LRwVv29k6vH3T6irGTwqLKizCfWrAmxNwvoOrZv337Nxo1Ppjc13rO4ZuyY5wtcznec8THHkiPDjjvCQ07IJHXB8T63lMjwv2Y54o8XZmf+cVB+7oHSXNf3J44dM+W7K1dmrd60qade9b5mbyrwz6ODGDCvvm7s+KqRGypKCt4qyHJ+qoOrkiNClCM8WKVEhXkmsgtOVLj13BxhwUqXT7mS4lV2ikNlJsYezUl1HCzOdW2pKi/7pvveewv1dv6rvcmAeW63O/DuRfNHT6gavrPIldEi4U0I6WsFNyki1O9Gr3Ke565HCtgvNkoVZWf+fvzI4Y8vmF0//kePPRbNKod/ium1NSPGV43YVZjl/CQtOsIKaKIeK7RtQtxV51LP01u45MhQq3A5KY4TZQPyD82bNvXOI4cOJdqbD1x9u9atu65h5kxnVXnpwwMynWfS46KtFe1S4U0IDVLxwX1UXBcceV7y/No+b9/nLweQVL1iZycnqtK83DeHFA5YGt77OgoHM+bW1gZXj6pcqK/PjiTra59LlSxel08CLWGWv0nRK5/nGqmLjH4+8rwSw4JUTN9eKqr3DSo2KNBamX23xTvyt7LSJUeGv+mMj1k8ZlhpIqeUuOoKc3OTi7NdO7KTEs9KsdoGVAomK52cgulCqmEDi1VVeZmqLCvtMiPPZ3hpiVyTqX4xkbpovVVs38B2VzrP6XGwSouObMnrl3rk1tFVc5577rkoe5cAnU8fza8dVlo6JDMx4Q1nbLR1xPeGUx4TQj03SIpzstSCWfXq8UcfUZuf/qHatnmT2rppY5cZeT7P/Ohptf77j6rVyx9Ui+bMVjcPq1DOhFgV3jNAhd9w/UUHEc82hljFzEl2qLIb835TM+6miXp//Iu9a4DOdfTo0dA7am6bnZkY/751I8EOo4yEMy64typyZaj7vrlIvX74t+rcuXPq/HmZ811y5PmdPXNWvf/ee2qLLt+MOyZbBwrPKabnhs9F2xkeal3D6e1vLc3P3drU1JTx8svua+3dA3Se/fv3u+bW163NSU36yPemiGdVC9I/B6tpt9eowwcPqpaWz/SB33/85dgx9cbrr6mNT61XU267RWU64q3T4URru/6+wslIGQuzMv6nbvIkd9OSJSn27gE6z4s7d5YsnF2/Ic+Zety3bFI0WQXkrt3yZY3q4+ZmO8L+59Spk+qFX/5SzZ1Rp1xJCSo6sOfn2+ktnGyrKynx3JDCAW/eMWFsjf7PAuxdBHSOvbt3F+myre+fnvIX37LJ3Uf5uSg7S61Z8ZA6dfKkJ7l+quWzz9S+f3tJ1d4y3nq3iWyfZ+W2Tyf1JOvpFxf9SUVR4fpvL3fn6//sGns3AVduz65dhQtmzXiivbKV5OaotatWqhPHj3tS68eam09bN1PGVJRbLw1E65HTR2/ZpHzye1FO1h9vHTu6acuWLbx5GZ3ni8pWnOOyVrbuUDbxvx98oL7d9C2lr1H/30sDciopr9nl6n83uDD/NXlL1xOrVvW2dxVwZb5qZWttbbVOJ2dNneK5ftOrm3WH0l7dZOR0sn966unqUZXbG2bPKLd3FXBlvmplE389cULt2LZFjSwbqCJ6ff2iazfZZvldXsC/MaPfsZuGVTS++OyzYfbuAjruq1g28Yf//r361n13q3xnmoqTd5vo8RbOKp292pXkZr80f8aMiW+//fYN9i4DOuZyyyarQXciL34fPviqaqifbt0UiQz8+kVl874Wp8v4t6ohZT9tvOvObHuXAR1zOWWTu5HNfvw62z/y8x3bVVX5IJUU6bkb6d1+61GXUD44m+dM+1Nl2cCGvLw87k6i4y6nbKsfWq4++vBDdebMGXX69Cl1+pQeefTjaT59Wn38cbM6+JsDaumCefr6LF3F9L30pwRSoiP+lpee+kJVeVntKrc7bs2aB2PlkengrHLHPbxqVZx76dKYcePGhd05bVrQoV27AvWxr3u/Ta69snlvGsi7/O9ZvMi6g3dg36/Vz3b8RD37k23Woz+PrGjP/+yn6sfPbFbL7lqiBuX3t8rme7NExi5fqysp4bQu268XzJn5yNIFDWsXzp25junY3Dln1iOL58/53sxvTP7OyMGDFo+rGjHzgfvuvm3XrudyW1tbe9rR7H7aK5v3CC+nUWOGDrGubeZOr1M1425WE8eOsR79eSaN94y8Z7J69EiVl55mreZtVzbZH/JSgDM+RhW5Mlv0Keex0RXlH8oj07EZNaTs2Oihg48PLSn4QO/3/xiQ6Tw0bGDRnuGDip8aM3TwXdNqa6u2bt0abke0+2ivbL4jL/SmyodF7Q9odqfxbpv83Ha7fUcK5/1bpnNG9qf9/6FVzwVHROg5fbp+8qZhFb+aPmVy/eLFc+J1RLvPR56+qGzyu3zMJiqwpzUxfXp1q4nWI7f9L3Wt5juyH+RvZB8xnTPWHV+9X7371vulTLpwn5YX3PjWiLKS5VlpCWl2VP3f5axsDGNqvAXMSXGoQlfGH0rzsh+qvqnSacfVv32Zsn1+dNc7hGE6Y6wVzSdz8rP396ykBFWcm/XBzSOH3rtp0w/kXTz+/R0xX6Zs8u/ljp28n5BhOmOsO8A6V7458x7U5RP0ruREpU8p906puXVsXV1dLzu2/umLyiYXsPKtWnK9Jhe0+c5+qiTXpQb2z5a3MjFMh8aTH5eVJ8mV5Ety5nujSgonj/kZqR+OGFTyg5lTpiTYsfVPl3ODRL6PUe4eyUsASxY0qIfcy9TKpgfUigfuZ5gOjeRHciR5klxJviRnvvnz/uxKir9Q4Mp4ta6mpsiOrX/6R2WTc+pIfcTJT0+zvq3q5zt2WN/p8e7v/lP917vvqHff+R3DdGis/OgcSZ4kV5IvyZnkTXLnzaCsdPINaK6khPdvGz160oEDB/z3VLK9ssmjbLQs7bW3TFCvvvKKOn/hgucNhUAnklxJviRnni8CvvigLy8JZDni/3RHdXXjK3v3Ouzo+p/2yua9UyTvrHhwWaM69uc/27sG6HySL8mZ5M17x/vzg77OZW5a0rF50+q+t2fnznw7uv6nvbJ534hcmper1q3+jvXGXeBqkXxJziRvkjvJn2/Z5NvfFs6pf+qlF14otqPrf76obPKu/++uXNHtPs+GrkXyJTmTvF2qbJJPyank1Y6u/7mcsnXHT2qja5F8Sc4oG2XDVUbZKBsMoWyUDYZQNsoGQygbZYMhlI2ywRDKRtlgCGWjbDCEslE2GELZKBsMoWyUDYZQNsoGQygbZYMhlI2ywRDKRtlgCGWjbDCEslE2GELZKBsMoWyUDYZQNsoGQygbZYMhlI2ywRDKRtlgCGWjbDCEslE2GELZKBsMoWyUDYZQNsoGQygbZYMhlI2ywRDKRtlgCGWjbDCEslE2GELZKBsMoWyUDYZQNsoGQygbZYMhlI2ywRDKRtlgCGWjbDCEslE2GELZKBsMoWyUDYZQNsoGQygbZYMhlI2ywRDKRtlgCGWjbDCEslE2GELZKBsMoWyUDYZQNsoGQygbZYMhlI2ywRDKRtlgCGWjbDCEslE2GELZKBsMoWyUDYZQNsoGQygbZYMhlI2ywRDKRtlgCGWjbDCEslE2GELZKBsMoWyUDYZQNsoGQygbZYMhlI2ywRDKRtlgCGWjbDCEslE2GELZKBsMoWyUDYZQNsoGQygbZYMhlI2ywRDKRtlgCGWjbDCEslE2GELZKBsMoWyUDYZQNsoGQygbZYMhlI2ywRDKRtlgCGWjbDCEslE2GELZKBsMoWyUDYZQNsoGQygbZYMhlI2ywRDKRtlgCGWjbDCEslE2GELZKBsMoWz655LcHLV21UrKhqtK8iU5k7x127Lt3b27aOHs+vXtla0oO8s64pw6edLeLUDnk3xJziRv7ZVNcip5taPrf17cubNEb8SGPGfqcd+yJYQGqcSwYJWdnKiWL2tUHzc327sF6HySL8mZ5E1yJ/nzLZvkU3IqebWj63/279/vmltftzYnNekj37JZG2ltcLCadnuNOnzwoGppabF3DdB5Wlo+s/IlOZO8Se4uyqHOpeRTcip5taPrf5qPHg2trbl1TmZi/PtJ9gZ6R44wccG99dKeqRqXLFavHz6szp07p86fP68uXNCjH+Vnhvmy8/fsnFP//tphK1+SM8mb5M43h5JLyafkVPJqR9f/6APLtcNKS4dkJia84YyNVsmRYW1WN8+5c3FOlppd9w21bs1qtXHDk+rHz2xW2zZtVFsZpgOzbfMmtfnpH6rHH31ELZhVb+VLSiV58+ZPRvKYHhOlMhLi3pCcSl7t6Pqnwtzc5OJs147spMSzsqFtjyzWObReyhNCg5VLn1NXFA1Qo4YMViMHD1KVZaUM86WnqrxMDRtYrAqynKpfbJSdL891mm/uHBEhqn9aytlB+f13lBUWJtuR9V9za2uDq0dVLtQbfsR3ZfOO/C53h2L6Bqq4oD7WP0uNjlApUeEM07HR+ZGsScHigvt8fvfbN3dStmT9t4ML8o/Mmjpl4YoVK4LtyPqvXevWXdcwc6azqrz04QGZzjPpcdHWkabtxnt3gOwY2UEMcyUTr8f3Zoh35HfJX7pe8QZkOT+dUFX58GPr1jnfa229zo6s/6ufPLFy/MgRuwuznJ+k6SOPQxfLWsovsTMYpjOmba6svOmR/EkOJY+SSzui3Yfb7Q68e9H80ROqhu8scmW0yHIvR5i2dykZ5qqMzpnkTXIn+ZMcSh7dDQ2BdkS7F6VUwLz6urHjq0ZuqCgpeEtfx32a5YhXyfpC1REerHdEmGf0+TbDXNHYWZJcSb4kZ5I3yZ3kT3IoebSj2T1t3779mo0bn0xvarxncc3YMc8XuJzvOONjjukL2uN6qT8ho49CDHNF482S5EryJTmTvEnuJH+SQzuS3d++fftiG2ZNL6weVTlu6qSJ8yuKChodYUHuhJAgtyMi5H6GuZKxcqTzJLmSfEnOJG+SOzuCX02tra29fvWLX0RH9g2IiwwIiEuK6hvLMFcykiPJk+RK8mVHDQAAAAAAAAAAAAAAAAAAAAAAAAAAAAAAAAAAAAAAAAAAAAAAAAAAAAAAAAAu0qPH/wHuZytPzU9dPAAAAABJRU5ErkJggg==;" parent="1" vertex="1">
                    <mxGeometry x="200.36" y="200" width="40.18" height="40" as="geometry"/>
                </mxCell>
                <mxCell id="18" value="src (プロダクションコードを配置)" style="text;html=1;strokeColor=none;fillColor=none;align=left;verticalAlign=middle;whiteSpace=wrap;rounded=0;fontFamily=Noto Sans JP;fontSource=https%3A%2F%2Ffonts.googleapis.com%2Fcss%3Ffamily%3DNoto%2BSans%2BJP;fontSize=18;fontColor=#FFFFFF;" parent="1" vertex="1">
                    <mxGeometry x="250" y="160" width="290" height="40" as="geometry"/>
                </mxCell>
                <mxCell id="19" style="edgeStyle=orthogonalEdgeStyle;html=1;entryX=0;entryY=0.5;entryDx=0;entryDy=0;fontFamily=Noto Sans JP;fontSource=https%3A%2F%2Ffonts.googleapis.com%2Fcss%3Ffamily%3DNoto%2BSans%2BJP;fontSize=18;endArrow=none;endFill=0;rounded=0;strokeColor=#FFFFFF;exitX=0.5;exitY=1;exitDx=0;exitDy=0;" parent="1" source="5" target="17" edge="1">
                    <mxGeometry relative="1" as="geometry">
                        <mxPoint x="190.2700000000002" y="170" as="sourcePoint"/>
                        <mxPoint x="210.36000000000013" y="189.9999999999999" as="targetPoint"/>
                    </mxGeometry>
                </mxCell>
                <mxCell id="20" value="AaaSubSystem.sln" style="text;html=1;strokeColor=none;fillColor=none;align=left;verticalAlign=middle;whiteSpace=wrap;rounded=0;fontFamily=Noto Sans JP;fontSource=https%3A%2F%2Ffonts.googleapis.com%2Fcss%3Ffamily%3DNoto%2BSans%2BJP;fontSize=18;fontColor=#FFFFFF;" parent="1" vertex="1">
                    <mxGeometry x="250" y="240" width="290" height="40" as="geometry"/>
                </mxCell>
                <mxCell id="21" style="edgeStyle=orthogonalEdgeStyle;html=1;fontFamily=Noto Sans JP;fontSource=https%3A%2F%2Ffonts.googleapis.com%2Fcss%3Ffamily%3DNoto%2BSans%2BJP;fontSize=18;endArrow=none;endFill=0;rounded=0;strokeColor=#FFFFFF;exitX=0.5;exitY=1;exitDx=0;exitDy=0;entryX=0;entryY=0.5;entryDx=0;entryDy=0;" parent="1" source="5" target="22" edge="1">
                    <mxGeometry relative="1" as="geometry">
                        <mxPoint x="190.2700000000002" y="170" as="sourcePoint"/>
                        <mxPoint x="150" y="280" as="targetPoint"/>
                    </mxGeometry>
                </mxCell>
                <mxCell id="22" value="" style="shape=image;verticalLabelPosition=bottom;labelBackgroundColor=#ffffff;verticalAlign=top;aspect=fixed;imageAspect=0;image=data:image/png,iVBORw0KGgoAAAANSUhEUgAAANoAAADbCAYAAAALQY9+AAAAAXNSR0IArs4c6QAAAARnQU1BAACxjwv8YQUAAAAJcEhZcwAAFxEAABcRAcom8z8AABadSURBVHhe7Z0JXNVV2setqalMS4XLvi8iKqAomqCi4oKAAuLuOLn0qqSomU6bjjW+jdWU2kzaFCWoLWZaaTX1ttjikqO45S6iILuAyi6gPO95/vyvHbdE5Fyu8Pt++nWxBD73PM/3nvPfmwEAAAAAAAAAAAAAAAAAAAAAAAAAAAAAAAAAAAAAAAAAGoRNmzY5zZwyJSSsb88xPu4uU1wNFrFabAxIA8ZZr0FwQJdpI4aE/Sk8JLj/1AljPInofr104E7g8REjWjw7d26nKRPGz4kJH/xFr67+xzu4OBa6GdqUullZlLpbWyINGFdRB37t7tehZGCvoFO9unb+sn/gIwtjJ00KX/Tcc84/JPwA4cydDWvWOMSEhk4K6uS3vpuP92H/dp7Fvh6u5O1oR562VjWxQxo0eg183V1I1Ic6uDqVeDvZJ3f19toSOXDAm0/PmRMhZrd79ZICc0IU5q43Fy92GR05ZHafgC7bOro6awV1MbQhMYuR+AQldxsDYkbhuriKuInaiFmO2jnYUg8/n9Lwvn0+HRE1ZOTCefPs9PICc+GjxET7cdGRcYF+vvt93Jyr2tpZawU05nqFRho2v9VGRLx62Bqorb0NtXd1KA/o2G7H6OghcfuP73fQSwzMgeHhoSOCOnfa4ePmUs2SceEg2J0XbQVibUHtnR2q+3bvunfSn8c8tWXLFie9zKChSEpKund1fLxHv0e6vdXBxanaU5/J5OLxnx1aP0TWLR4gq+b3IWYQG1EL+4dbkLNl62vqxctJD7Hs7+zlTr27+R8YEx05NSokxEIvOWgI4pcts549PXZacID/bk0yfc0vS2bcDuDiIeYRdxFjbYz1kWvGr15iGenlaFfl7eSw2cPeJiY4uNk9etmBqYmdPNl7VGRYYqCfT6GxcMaCcfhTk1+HhYXSogXP0fKlS2j5sqVIA+ZfS16lF+Y/QxPHjKLATj7k2OZhsn2o+eUPQ2PtjDtLXCzblLhZWW5yt7WItLW1ba6XHpiS4IDOXYP8fX/q3Na9pjj6p6H2SSnW+14OthQ1aAC9l7CScnNyCJgH2VlZ9M1XX9ILzz5DocG9hGDW5Ni6pbaU5NnOKJsxoq4X3K0N/3G1s4zwsrBoqZcfmIq2TrZBYnlxgI+TyYVxsmhFDq1a0pD+fWlNQgJlZ2bqJQbmQnFxMSUfO0prVr5DIyLCxMzVmuwefvCKOhrjIeJmY1nsam340s1gGCZK/4eaDgDKEbW6K7Rv7zCx3Ei++jgZ7/zgDe7pkydSWmpqTWWBWXJGrDQ+SEyk4WJ5zysR6wfv1/Y+ystIFo3/zDObm5Xhcxcri6HtDYYWeisAlYga3TU+JmZYOye7a0SzF7MZF2xu3HQqKiysqSgwKdXV1VRWVkolYuaqrKjQ/+v1yc3OprWrV1HM4EHazOYglpEsm1zTy7G2LOdlpIdYRmKbzUT07t5lgIed9RE+C0QuhlG0eTNnaIUGpuXixYuUkpxMX3/5OW1Yt5b+u30bnTt7Vv+/1ydHbLd9sCpBm9l4W82mZfMramqMp23NMlJ8/YWbrVV0M+yNVI9d65aBrlaGg9pBaqkYRtGenPE4FZ4/r5cSmILioiL64dtv6X//Op8mjR1No6OH0qxpUynh7bfENtkx/W9dn5zsLHo/YSUNGzxQW0baCtluvIw0XHCzMWx0tbaMsMAOErU4GVoHiQE/BNHMA57Jdu/cSbETHqV2jnYkVhvExzfFUo+Cu/pT/PI36GxBvrasvBG844pntmFiGckzG29vs3RyfY0R22yl4v99ybK1b9/sj3pbgPrGzdbQE6KZD1mZGfTOmyuot5Cq1R+aaTXgY5mt7rlb2xMcO3ECbd/6M5WXlenfcX14GcmHZHhmY9n458j1NcbTRsxsYhkpZrZNLnYWQ7t0aYaz/lUA0cyLQwcP0AvPPU3dfTuQ3UMPXt6hwfXgk4ZHDo2gj9d+UKuaGGWLDh2gHRO15Z8npLtmGSmi7Y20MXwmpBuMZaQCIJp5cViI9rf5z1KPTh21mexK0axodNRQ2vDRh1RUy5pkiWVkjWwDLx8b/Z1lZLG7leFzVzvriIXNmt2ttwioDyCaeXHk8CF6ceECCuzse41ovK02dlgUfbp+3S0dcuGZjQ9qs2z886xEXYVUV8xsUkrauzp9FhwQECG2A+/T2wTcLhDNvFAhGsM7SFi2qEH9tZ9p36rmzH9ZNqN83k725T38fDfOeuyxQevWrcNB7foAopkXqkRjMtPTddkGaMtI/pksl1x3Y/zbeRbFDA7d+Ozs2eHiW+/S2wXUFYhmXqgUjeGZbfW7xpmtZm8kb7MZZzYWj//c3smeAv06lg4PD13/5IzY8NzcXMxstwNEMy9Ui8YYZYscGHL5OJvx9xjDl9jw72PZYsIGffLUrFl94uLisM1WVyCaeWEK0RheRq5+J16b2RzFMpIPJcj1N14ALLbXqFvHdtlDBoQsGzcy2l9vG3CrQDTzwlSiMVkZ6ZQY/zYNHRDCF4eSTcsHrlhGcvi4m5eD7aUefj7HYyIGTxffhntG1gWIZl6YUjSGZ7ZVYmaLFLI5W7bSdpLIx9l4ZuPe8PVwrR4c3Dtxw9q1HRcuXIhjbLcKRDMvbibauJho+mzDx/UmGpOZfppWiZktSmyzsWRXLyP5Eiq+0r7fIwFJ82bPnPLqqwst9fYBtQWimReHDx3U7s3So5PPDUXb+Ml6Ki0p0b+jfsjKyKAVy5ZScIA/OYtZjbfPjLv+WT7+OqiTb/7YYUPjZ82a5qW3D6gtEM28uNGMxnsGeduJj4GtSXiXzp87p39H/cBXA+zdnUTzZk6ngA7ttCWk8Xcbhevi3ba6X2D3byMG9cNOkVsFopkXJ0+coKUvv0S9xcyinVRs2VqrBzc9zyz+Xp70zJzZlHz8969LqwslJcX0yccfaadqseS8N1LuiQ4ujuTj5ryvk5d7oN4+oLZANPMiPy+PPlyVSAOCepDhgT9qyziuB88qLJpj64dpUK8g+ve//klHxDIzJztbfM8ZLXk3yZncXMo7c4bKy8v133Ytx44eoamPjtfuF8MnIMs9wVfhu1pZHuWe0dsH1BaIZl5crKqibT/9SDFhoWR5/73aEs5YE5aNDzB72dtSSI/uNC9uBsWvWE7vJyZoeS9x5e8mIf5tbdnJP/9sQYH+G6+Eb5cwZ3qsVnue1eSegGi3AUQzP9JOnaK/zI7j++drS0bjtpIxTm1aiZntIW0ZGd4vmKIHD9QSFTrgdzOkfz+KHNifJo8bQ/FvrqDTqaf03/gbfH+YuTNnXFc07hHRK0cgWh2AaOYHN/unH6+jUZER2izGdyGWa2NcRt5qWFieEW1bNKdBvXvSJ+s+umbvJdeaaw7R6hmIZn7wHsDMjHR6bfGL1MnTXasDi6I9nkmvD8vG4vDtwHl2q224rq3vvZv8PNzo+WeepkO//nrF/UcgmiIgmvmyZ9cu+susmcS3a+cdI3ZiZrt6GXmrYUF5byY/aDJ24qP04/ffQTRTANHMl6qqKtq9a6e204O3x/iANZ8mxcfUnMRMxsvAWw3vXGFpfd1d6eknZgmZd0I0UwDRzJuKigram5REr//jZRoTFUnezvaaKJoIokYsXa0j/r6dkKf1PXdTz85+2jmOZ/Pz9d9UA0RTBES7M+CTfzeuX08L/jJXOw1rSEhf6h/0CPXp3pX6dOtKfcXrzcK3sAvu1oUi+vWhRQvm05GDB/Sf/hsQTREQ7c6BDzTzRZu7dvxCG9aupRWvL6XXXvq7ttNkycuLb5pXXlyk/X3eo3kqJYWqKiv1n/wbEE0REO3Og7ep+IDz6dRUSjmRrN2jn0/duln4tC3++793niREUwREAzIQTREQDchANEVANCAD0RQB0YAMRFMERAMyEE0REA3IQDRFQDQgA9EUAdGADERTBEQDMhBNERANyEA0RUA0IAPRFAHRgAxEUwREAzIQTREQDchANEVANCAD0RQB0YAMRFMERAMyEE0REA3IQDRFQDQgA9EUAdGADERTBEQDMhBNERANyEA0RUA0IAPRFAHRgAxEUwREAzIQTREQDchANEVANCAD0RRhCtFKqi7RwfPltOVMCf2UW5Ofkcvh8fgxp4S2ifFJKa6giku/Pa/M1EA0RagUjdulVEi2M7+U3jiWR0/vzaKn9PDXSE20MdmTRfP3ZdO7Jwpo79kybdwaAoimCJWiVYlP5n2iaf55NI+m7EinUVtSaexW5EYZtzWNJm4/Ta8dPiNmtgv6KJoWiKYIlaJduFhNmzIKacbODBr+0ymK+vEkjfj5FHKDxIgxCvn2BP2P+FDaU1Cmj6JpgWiKUClahRDtq6wieiKpRrShQjRuJuTaDBOJFgn9PoVm7cqgX8VKoCGAaIpQKRpv0x86X06vHzlDY8SycfDmFDGriYZCrgl/CA394SSNEUvIJWLpeLK4Qh9F0wLRFKFSNKa48iLtyCvRdob8dX82Pf9rDr0g8jfkcng8nhdjs+hANsUnF4jxKqXzldgZ0qhQLRpTdvESZZRVarv494glEYf3rCE14fHgnUaHxfjklFVRpVgKNNQOfoimCFOIZuRSdTVdEE3E4WNFSE14PFguHp+GBqIpwpSiAfMHoikCogEZiKYIiAZkIJoiIBqQgWiKgGhABqIpAqIBGYimCFOIxnut+Wz085UX6VwFoiKFYmz5eOXtAtEUYQrRcsuraHNOMX1w6iy9p+d9pF7y3smztEZkXeo52nbm9s8ogWiKUCnaJTGT5QjJ/pNZRM/vz6Gp/02/nGlIvWTqjnTtEqRY8fVLB3Npe16JtnKo66FviKYIlaLx2Q58BTFLNn5rmnaWOl+ThtRvRorwydoTt6fRW8fz6GhhufYhVxcgmiJUisbXo32WXkiPi09bvkwmGtejKclwkQg+818I98qhXNpdUEYX63g6F0RThOoZ7cfcYnpmb5Y2m4VtTqFIIRtSv+FLbELF2I7bmkr/Pp5Pxwsr6nzeJERThErRuNRpJRViY71AbEuc1j55x4olJF+yj9RfeExH/pxKT+zOoK+zirQ9kHUFoilCpWgMn52eXHyBNmWcp5Up+fTOiQLtBjRI/YXHNDGlgL7KKqT0sgrtcEpdgWiKUC2aET7Gc+ZCFaWXVmrJQOolxvHksS0VY3wbjmlANEWYSjQj3Ah8pIdfkduPcSzrC4imCFOLBswbiKYIiAZkIJoiIBqQgWiKgGhABqIpAqIBGYimCIgGZCCaIkwhGp+KlVlWSceKLtDRwqadI4Xl2mtqSeVtncGhCoimCNWi8cmtx4VgH5w6R/84nEuvHDrTpMOXsvDr28cLaEtuCRVV3v5B5voEoilCpWgsWbKQbFXKWZqdlEl/2ppGf95Wk0ebaMbrmbT9tBAul3bll1JRAz0L7XpANEWoFI2fJvN1ZhE9KSQb9XOqdpnMSOnyjqYYPvmXr2SI+CFFezwTXyWdLpbV5gJEU4RK0fh6tM8zCiluZwaNuOp6ND6TvymG3zs/oomvH5u84zQlnDhLpxroyTHXA6IpQqVofK8YXhq9eCBH+xQf+P0JGiIajB9P1FTD7z9880kxFik0fVeGNuPzzXXMBYimCJWiMfkXquirzEJasC9bu8fFDNFccSIzm2j4/fMTUPnrt5Lz6VSJ+cxmDERThGrReIdIXkUV7TtXRt/nFNH/ZdXkmyYansH4lZ8Zl1ZSqV2vZ05ANEWoFk2m/NIlKqqsuQchvzbF8HvnhzNW387VmQqBaIowpWjA/IFoioBoQAaiKQKiARmIpgiIBmQgmiIgGpCBaIqAaEAGoinCVKJpd2wS/2qKEf/cMUA0RZhCND5+tO8sH7Aupm+za/JdIw+/x2+yimmzeD18vlx7PtydAERThErR+JO8WDTYL3mltOxIHs3bk0lzd2dpmdfIw+/xSZGn9mTRiuN5tEOMAX/gmDsQTREqRasS6yZ+ssmSw3n02C/p2iUiY7bWZGwjD7/H0VvE65Y0mrA9jV4+lKtdXW3uQDRFqBSNL5PZmF5I03dmaI9timpCl8kY36N21cJ3KTTxlzTafqZEHxnzBaIpQqVofOEnn0DMF36yaHyJCF+L1ZQSJTL4+5PaEzl35pfqI2O+QDRFqBSN97jxcumNo3nEz+7i56NFX9WIjTk8g/Pzy/jWBUvFNuqJogv6yJgvEE0RKkVjSqouUVJBKb2dnK9dAPr3g7m0uImE3+/igzm0KqVA21bFzpAmjGrRmAtiasspr6SjReX067maHGjkMb5Hfp50rnjvvHf/TjieBtEUYQrRjHCj8T0em1Lq+ojbhgKiKcKUogHzB6IpAqIBGYimCIgGZCCaIiAakIFoioBoQAaiKQKiARmIpgiIBmQgmiIgGpCBaIqAaEAGoikCogEZiKYIiAZkIJoiIBqQgWiKgGhABqIpAqIBGYimCIgGZCCaIiAakIFoioBoQAaiKQKiARmIpgiIBmQgmiIgGpCBaIqAaEAGoikCogEZiKYIiAZkIJoiIBqQgWiKgGhABqIpAqIBGYimCIgGZCCaIiAakIFoioBoQAaiKQKiARmIpgiIBmQgmiIgGpCBaIqAaEAGoikCogEZiKYIiAZkIJoiIBqQgWiKgGhABqIpAqIBGYimCIgGZCCaIiAakIFoioBoQAaiKQKiARmIpgiIBmQgmiIgGpCBaIqAaEAGoikCogEZiKYIiAZkIJoiIBqQgWiKgGhABqIpAqIBGYimiJuJNm/mDCopLtbLABo7XGuuOUSrZ24m2ty46VRUWKiXATR2uNZcc4hWzzhaturlYmhzxNPW6opBdWj9ENm0eICmT55IaampehlAY4drzTXn2juID1u5J7hHnA1tjnHP6O0DaktbJ6cgL0e7A96OdlcMqpNFK22gh/TvS2sSEig7M1MvBWiscI251lxzrr2TxcNX9AT3iJeD3SHuGb19QG0J6dEjoKe/70+d27prg+lmbam9ulpZkKuhjRhYW4oaNIDeS1hJuTk5eklAYyM3N1erMdeaa8615x6Qe4J7pGdnvy3cM3r7gNoSO3my96jIsMRAP59CHlDj4BpjXKcPCwulRQueo+VLl9DyZUuRxhRR00UL5ms1lmtuDPcE9wb3yMih4au5Z/T2AbUlftky69nTY6cFB/jv9uSNXX1QjYNslI9fPcQaHWm8kWst1597gnuDe2TW49NiuWf09gG1JSkp6d7V8fEe/R7p9lYHF6dqTTZpoI2DzTtHrMUGslXz+5BGGK4t1/h6teee4N7gHlm5cqUn94zePuBWGR4eOiKoc6cdPm4u1dqufv4ku2rQkaYTrj2He8HHzbmae4N7RG8XUFc+Sky0HxcdGRfo57tfDGxVzTGTmsGGcE0ncs15JuNeENtm+7k3uEf0dgF1hYjuenPxYpfRkUNm9wnosq2jq7N23MTF0EZbo/MMd73CII0oLJioNdeca889wL3APcG9wT2itwu4XT788EPHYaGhkwP9/TZ08/E+4u/lWeLr4ULtHO20wddihzSq6HXlGnOtueZc+8DOvp9wL3BP6O0B6pPHR4xo8ezcuZ2mTBg/JyZ88Be9uvof7+DiWOhmaFMqPvFKxScf0ojCNeXaco251lxzrj33APeC3hZAFZs2bXKaOWVKSFjfnmN83F2muBosYrXYGJDGFL2uXGOuNdeca6+3AQAAAAAAAAAAAAAAAAAAAAAAAAAAAAAAAAAAAAAAAADAlDRr9v/lMcv594oauQAAAABJRU5ErkJggg==;" parent="1" vertex="1">
                    <mxGeometry x="200.36" y="240" width="39.82" height="40" as="geometry"/>
                </mxCell>
            </root>
        </mxGraphModel>
    </diagram>
</mxfile>